<svg viewBox="0 0 200 200" fill="none" xmlns="http://www.w3.org/2000/svg">
  <!-- Handle grip wrap -->
  <rect x="93" y="8" width="14" height="56" rx="7" fill="#7c3d12"/>
  <line x1="93" y1="18" x2="107" y2="18" stroke="#92400e" stroke-width="2"/>
  <line x1="93" y1="26" x2="107" y2="26" stroke="#92400e" stroke-width="2"/>
  <line x1="93" y1="34" x2="107" y2="34" stroke="#92400e" stroke-width="2"/>
  <line x1="93" y1="42" x2="107" y2="42" stroke="#92400e" stroke-width="2"/>
  <line x1="93" y1="50" x2="107" y2="50" stroke="#92400e" stroke-width="2"/>
  <!-- Shoulder splice -->
  <path d="M87,62 C84,72 81,80 79,90 L121,90 C119,80 116,72 113,62 Z" fill="#c4954a"/>
  <rect x="87" y="58" width="26" height="10" rx="2" fill="#b8864a"/>
  <!-- Blade body -->
  <path d="M77,90 C70,115 70,142 73,160 C76,178 100,186 100,186 C100,186 124,178 127,160 C130,142 130,115 123,90 Z" fill="#dbb97a"/>
  <!-- Blade edges (3D effect) -->
  <path d="M77,90 C74,110 73,135 74,155 C76,170 85,180 100,186 C100,186 100,186 100,186 L100,90 Z" fill="#d4a96a"/>
  <!-- Centre ridge spine -->
  <line x1="100" y1="90" x2="100" y2="185" stroke="#c4954a" stroke-width="2.5" stroke-linecap="round"/>
</svg>
